<?xml version="1.0" encoding="UTF-8"?> <svg xmlns="http://www.w3.org/2000/svg" width="128" height="30" viewBox="0 0 128 30" fill="none"> <g clip-path="url(#clip0_3897_13776)"> <path fill-rule="evenodd" clip-rule="evenodd" d="M94.5647 18.0086C94.5647 14.8964 92.5326 13.0451 89.9479 13.0451C87.3632 13.0451 85.3311 15.1936 85.3311 17.6612C85.3311 20.1262 87.4297 22.2211 90.5123 22.2211H94.5647C94.5647 20.5866 94.5647 18.6843 94.5647 18.0086ZM97.9514 19.6879V25.6084H90.3241C84.8245 25.6084 81.9445 22.0296 81.9445 17.6612C81.9445 13.2881 85.5277 9.74304 89.9479 9.74304C94.3437 9.74304 97.9514 12.8553 97.9514 17.6612C97.953 17.8397 97.9514 19.5093 97.9514 19.6879Z" fill="#333333"></path> <path fill-rule="evenodd" clip-rule="evenodd" d="M72.0926 22.6231C74.7873 22.6231 76.9119 20.3853 76.9119 17.8036C76.9119 15.2221 74.7873 12.9843 72.0926 12.9843C69.3978 12.9843 67.2733 15.2221 67.2733 17.8036C67.2733 20.3853 69.3978 22.6231 72.0926 22.6231ZM72.0926 25.8644C76.5914 25.8644 80.2386 22.2555 80.2386 17.8036C80.2386 13.3519 76.5914 9.74304 72.0926 9.74304C67.5937 9.74304 63.9467 13.3519 63.9467 17.8036C63.9467 22.2555 67.5937 25.8644 72.0926 25.8644Z" fill="#333333"></path> <path fill-rule="evenodd" clip-rule="evenodd" d="M10.5244 22.1366C7.83594 24.8252 8.42612 27.602 10.4921 29.7029L15.1283 25.0666L20.0703 20.1246L20.9072 19.2877C23.5958 16.5992 23.0055 13.8223 20.9396 11.7214L16.3033 16.3578L11.3614 21.2996L10.5244 22.1366Z" fill="#FF823E"></path> <path fill-rule="evenodd" clip-rule="evenodd" d="M2.3439 10.7273C-0.344631 13.4159 0.245582 16.1927 2.31155 18.2935L6.94779 13.6573L11.8897 8.71534L12.7267 7.87838C15.4153 5.18986 14.825 2.41299 12.759 0.312134L8.12278 4.9484L3.18087 9.89033L2.3439 10.7273Z" fill="#FF823E"></path> <path fill-rule="evenodd" clip-rule="evenodd" d="M11.0023 19.3977C8.31368 22.0863 5.53683 21.4961 3.43591 19.4302L8.07227 14.7939L11.4058 11.4603L12.2428 10.6234C14.9313 7.9348 17.7082 8.52497 19.809 10.5909L15.1728 15.2272L11.8392 18.5608L11.0023 19.3977Z" fill="#FF823E"></path> <path fill-rule="evenodd" clip-rule="evenodd" d="M123.144 5.67728C123.144 3.30306 124.631 2.33755 126.47 2.32214L126.469 13.752C126.469 15.1594 126.482 16.5673 126.469 17.9745C126.469 22.7806 122.862 25.8928 118.466 25.8928C114.046 25.8928 110.462 22.3477 110.462 17.9745C110.462 13.6062 113.342 10.0274 118.842 10.0274H123.144V5.67728ZM118.466 22.5055C121.051 22.5055 123.082 20.7395 123.082 17.6271C123.082 16.9515 123.082 15.0493 123.082 13.4147H119.03C115.948 13.4147 113.849 15.5097 113.849 17.9745C113.849 20.4423 115.881 22.5055 118.466 22.5055Z" fill="#333333"></path> <path fill-rule="evenodd" clip-rule="evenodd" d="M103.815 11.4031C103.276 10.2515 102.169 9.75401 100.852 9.74304C100.852 15.0228 100.852 20.3284 100.852 25.6084H104.179V21.1728V18.3197C104.194 17.7817 104.183 17.163 104.328 16.4609C104.512 15.5689 104.859 14.8202 105.46 14.3281C106.729 13.289 107.968 13.3146 109.19 13.3398C109.377 13.3437 109.565 13.3476 109.752 13.3476V10.021C109.646 10.021 109.515 10.0162 109.365 10.0107C108.244 9.96973 105.978 9.88693 103.815 11.4031Z" fill="#333333"></path> <path fill-rule="evenodd" clip-rule="evenodd" d="M52.5201 10.0273L52.5345 10.0274C52.545 10.0275 52.5555 10.0276 52.5659 10.0276C54.4065 10.0276 55.7296 8.47521 55.7296 6.94255C55.7296 5.4098 54.4065 3.99973 52.5659 3.99973C51.5826 3.99973 50.8122 4.34038 50.3058 4.82875C49.8235 5.29386 49.4021 6.06265 49.4021 7.29793V7.30958L49.3841 10.0274L52.5201 10.0273ZM49.3892 13.2118C49.4095 16.215 49.4215 19.2179 49.4214 22.2212H53.4738C56.5564 22.2212 58.6551 20.1263 58.6551 17.6614C58.6551 15.9638 57.7683 14.5411 56.3267 13.7664C55.1784 13.1294 53.7644 13.2224 52.5059 13.2117L49.3892 13.2118ZM46.0341 7.72218C46.0341 7.35321 46.057 6.99279 46.1009 6.6446C46.3956 2.90045 49.225 0.673096 52.5659 0.673096C56.1007 0.673096 59.0562 3.43258 59.0562 6.94255C59.0562 8.40166 58.5454 9.73117 57.6945 10.7866C60.2961 11.9965 62.0416 14.5468 62.0416 17.6614C62.0416 22.0297 59.1615 25.6086 53.662 25.6086H46.0347L46.0341 7.72218Z" fill="#333333"></path> <path fill-rule="evenodd" clip-rule="evenodd" d="M37.2544 9.81548C39.0098 9.60135 41.22 10.0896 42.5545 11.5573C42.6005 11.6079 40.3546 13.754 40.1876 13.9143C39.4441 12.8278 36.1985 12.5888 36.1985 14.371C36.1985 15.3867 37.6691 15.8776 38.4471 16.0738C40.9051 16.6934 43.6599 18.1592 43.6599 21.0603C43.6599 23.9143 40.9206 25.8792 38.2295 25.8792H38.2017C35.8771 25.8797 34.0313 24.8106 32.3721 23.2289L34.732 20.869C35.7822 21.8702 36.7606 22.5526 38.2295 22.5526C39.0666 22.5526 40.3332 22.0396 40.3332 21.0603C40.3332 19.9528 38.4345 19.3023 37.6338 19.1004C35.2736 18.5053 32.8719 17.0549 32.8719 14.371C32.8719 11.8481 34.8573 10.1078 37.2544 9.81548Z" fill="#333333"></path> </g> <defs> <clipPath id="clip0_3897_13776"> <rect width="127.297" height="30" fill="white"></rect> </clipPath> </defs> </svg> 